<svg width="450" height="100" viewBox="0 0 450 100" fill="none" xmlns="http://www.w3.org/2000/svg">
<path d="M99.7063 31.6455H108.618L119.184 59.5547C119.558 60.4618 119.984 61.6892 120.571 63.3435C121.158 61.5291 121.639 60.2484 121.906 59.5547L132.258 31.6455H141.063V69H135.513V42.0514C135.513 39.8635 135.513 38.2092 135.567 37.142L123.773 69H117.21L105.149 37.142C105.203 38.2092 105.203 39.8635 105.203 42.0514V69H99.7063V31.6455ZM147.385 55.9793C147.385 50.6963 149.68 46.3739 153.522 44.0259C155.39 42.9052 157.524 42.3182 159.926 42.3182C163.768 42.3182 166.756 43.5456 168.891 46.0003C171.025 48.5084 172.093 51.8703 172.093 56.086V57.2067H152.775C152.828 62.3829 155.924 65.6915 160.246 65.6915C163.501 65.6915 165.956 64.1973 166.543 60.8354H171.879C171.612 63.4502 170.438 65.5847 168.411 67.2924C166.383 69 163.661 69.8538 160.193 69.8538C152.295 69.8538 147.385 64.7843 147.385 55.9793ZM155.07 48.3483C153.736 49.6824 152.989 51.3367 152.828 53.4178H166.49C166.49 49.1488 163.981 46.3739 159.926 46.3739C157.951 46.3739 156.35 47.0142 155.07 48.3483ZM177.96 63.5569C176.946 61.4757 176.412 59.021 176.412 56.1394C176.412 47.8147 181.482 42.3182 188.366 42.3182C192.261 42.3182 195.143 44.2393 196.584 46.7474C196.53 46.2138 196.477 45.4667 196.477 44.4528V31.6455H201.813V69H196.477V67.6659C196.477 66.652 196.53 65.9049 196.584 65.4246C195.25 67.9327 192.154 69.8538 188.259 69.8538C183.723 69.8538 179.934 67.6659 177.96 63.5569ZM183.99 49.1488C182.549 50.9098 181.855 53.2578 181.855 56.086C181.855 58.9677 182.549 61.2623 183.936 63.0233C185.324 64.7843 187.138 65.6915 189.38 65.6915C191.567 65.6915 193.328 64.7843 194.769 63.0233C196.157 61.2623 196.85 58.9677 196.85 56.086C196.85 53.2044 196.157 50.9098 194.769 49.1488C193.382 47.3878 191.567 46.534 189.38 46.534C187.192 46.534 185.377 47.3878 183.99 49.1488ZM214.779 38.6361H208.909V32.6594H214.779V38.6361ZM209.229 69V43.172H214.512V69H209.229ZM220.45 61.9027C220.45 57.3667 223.492 54.5918 229.575 53.6847L234.431 52.9376C236.406 52.6708 237.153 51.977 237.153 50.4829C237.153 47.9748 235.232 46.3739 232.297 46.3739C228.828 46.3739 226.694 48.2949 226.534 51.3367H221.144C221.464 46.3205 225.466 42.3182 231.923 42.3182C238.807 42.3182 242.382 46.107 242.382 52.7241V69H237.366V67.7726C237.366 67.2924 237.42 66.5453 237.473 65.478C236.139 68.1995 233.257 69.8538 229.362 69.8538C224.506 69.8538 220.45 66.7587 220.45 61.9027ZM231.176 57.4201C227.654 58.1138 225.893 59.5547 225.893 61.7959C225.893 64.304 227.814 65.7982 230.429 65.7982C234.325 65.7982 237.206 63.13 237.206 59.1277V55.7125C236.833 56.1394 235.819 56.5129 234.271 56.8331L231.176 57.4201ZM250.312 31.6455H259.224L269.79 59.5547C270.164 60.4618 270.591 61.6892 271.178 63.3435C271.765 61.5291 272.245 60.2484 272.512 59.5547L282.864 31.6455H291.669V69H286.119V42.0514C286.119 39.8635 286.119 38.2092 286.173 37.142L274.379 69H267.816L255.755 37.142C255.809 38.2092 255.809 39.8635 255.809 42.0514V69H250.312V31.6455ZM297.991 55.9793C297.991 50.6963 300.286 46.3739 304.128 44.0259C305.996 42.9052 308.131 42.3182 310.532 42.3182C314.374 42.3182 317.362 43.5456 319.497 46.0003C321.631 48.5084 322.699 51.8703 322.699 56.086V57.2067H303.381C303.435 62.3829 306.53 65.6915 310.852 65.6915C314.107 65.6915 316.562 64.1973 317.149 60.8354H322.485C322.218 63.4502 321.044 65.5847 319.017 67.2924C316.989 69 314.267 69.8538 310.799 69.8538C302.901 69.8538 297.991 64.7843 297.991 55.9793ZM305.676 48.3483C304.342 49.6824 303.595 51.3367 303.435 53.4178H317.096C317.096 49.1488 314.588 46.3739 310.532 46.3739C308.557 46.3739 306.957 47.0142 305.676 48.3483ZM325.214 43.172H330.444V34.3137H335.78V43.172H341.49V47.4411H335.78V60.7287C335.78 63.4502 337.061 64.8376 339.569 64.8376C340.156 64.8376 340.796 64.7843 341.49 64.6776V68.9466C340.423 69.2135 339.302 69.3735 338.181 69.3735C333.432 69.3735 330.444 66.8655 330.444 61.369V47.4411H325.214V43.172ZM346.807 69V43.172H352.09V44.6129C352.09 45.947 352.09 46.9609 352.036 47.6012C353.37 44.4528 356.145 42.3182 359.934 42.3182C360.468 42.3182 360.895 42.3182 361.161 42.3716V47.6012C360.788 47.4945 360.254 47.4411 359.56 47.4411C354.811 47.4411 352.09 50.1093 352.09 55.6591V69H346.807ZM371.169 38.6361H365.299V32.6594H371.169V38.6361ZM365.619 69V43.172H370.902V69H365.619ZM376.841 61.9027C376.841 57.3667 379.882 54.5918 385.966 53.6847L390.822 52.9376C392.796 52.6708 393.543 51.977 393.543 50.4829C393.543 47.9748 391.622 46.3739 388.687 46.3739C385.219 46.3739 383.084 48.2949 382.924 51.3367H377.534C377.855 46.3205 381.857 42.3182 388.314 42.3182C395.198 42.3182 398.773 46.107 398.773 52.7241V69H393.757V67.7726C393.757 67.2924 393.81 66.5453 393.864 65.478C392.53 68.1995 389.648 69.8538 385.752 69.8538C380.896 69.8538 376.841 66.7587 376.841 61.9027ZM387.567 57.4201C384.045 58.1138 382.284 59.5547 382.284 61.7959C382.284 64.304 384.205 65.7982 386.82 65.7982C390.715 65.7982 393.597 63.13 393.597 59.1277V55.7125C393.223 56.1394 392.209 56.5129 390.662 56.8331L387.567 57.4201Z" fill="black"/>
<path d="M58.4753 44.578L64.7764 28.9153C64.9474 28.4902 65.3597 28.2117 65.8179 28.2117V28.2117C66.438 28.2117 66.9406 28.7143 66.9406 29.3344V55.1071C66.9406 55.3597 66.8958 55.6102 66.8083 55.8471L61.06 71.4013C60.7502 72.2394 59.9513 72.7959 59.0578 72.7959H50.1723C48.657 72.7959 47.6242 71.261 48.195 69.8573L58.4753 44.578Z" fill="black"/>
<path d="M76.5343 44.5779L82.8354 28.9152C83.0065 28.4901 83.4187 28.2116 83.877 28.2116V28.2116C84.4971 28.2116 84.9997 28.7142 84.9997 29.3343L84.9997 55.107C84.9997 55.3596 84.9549 55.6101 84.8674 55.847L79.1191 71.4012C78.8093 72.2393 78.0104 72.7958 77.1169 72.7958L68.2314 72.7958C66.7161 72.7958 65.6833 71.2609 66.2541 69.8571L76.5343 44.5779Z" fill="black"/>
</svg>
